<?xml version="1.0" standalone="no"?>
<!DOCTYPE svg PUBLIC "-//W3C//DTD SVG 20010904//EN"
 "http://www.w3.org/TR/2001/REC-SVG-20010904/DTD/svg10.dtd">
<svg version="1.0" xmlns="http://www.w3.org/2000/svg"
 width="582.000000pt" height="582.000000pt" viewBox="0 0 582.000000 582.000000"
 preserveAspectRatio="xMidYMid meet">
<metadata>
Created by potrace 1.11, written by Peter Selinger 2001-2013
</metadata>
<g transform="translate(0.000000,582.000000) scale(0.100000,-0.100000)"
fill="#000000" stroke="none">
<path d="M1506 5808 c-39 -124 -56 -221 -56 -314 0 -33 -2 -63 -5 -66 -3 -3
-38 26 -78 65 -39 38 -97 85 -127 104 -30 20 -67 44 -82 54 -29 20 -115 45
-124 36 -4 -3 -7 -89 -9 -191 l-2 -184 -105 -105 c-87 -86 -109 -114 -127
-161 -11 -31 -21 -63 -21 -70 0 -14 -28 -29 -109 -57 -30 -10 -59 -23 -65 -28
-6 -4 -37 -18 -69 -30 -32 -11 -68 -27 -80 -35 -12 -8 -41 -20 -64 -27 -24 -7
-43 -15 -43 -19 0 -4 -15 -13 -32 -20 -55 -22 -221 -122 -256 -154 -50 -46
-57 -71 -30 -115 32 -53 54 -78 120 -132 20 -16 48 -49 62 -73 22 -37 42 -58
131 -135 39 -33 121 -74 210 -103 77 -25 113 -31 255 -38 167 -9 220 -16 220
-30 0 -4 9 -10 20 -13 27 -7 26 -49 -3 -107 -20 -42 -22 -57 -20 -225 0 -100
4 -204 7 -231 3 -28 -1 -96 -10 -150 -59 -390 -57 -533 11 -879 35 -178 46
-361 34 -580 -11 -210 -53 -593 -75 -680 -8 -33 -24 -107 -35 -165 -12 -58
-24 -109 -29 -115 -4 -5 -16 -50 -25 -100 -10 -49 -21 -99 -26 -110 -4 -11
-13 -38 -20 -59 -19 -64 -75 -170 -106 -202 -16 -16 -49 -45 -74 -66 -87 -69
-158 -223 -130 -277 12 -21 14 -21 406 -21 l394 0 54 68 c67 83 80 94 139 121
67 30 96 73 114 168 8 43 20 102 26 132 8 36 12 212 12 550 1 410 -1 502 -13
530 -9 20 -15 69 -15 120 -1 71 3 93 22 128 12 24 27 43 32 43 15 0 12 23 -10
73 -22 50 -64 87 -121 107 -34 12 -41 11 -104 -18 -91 -43 -128 -42 -172 5
-66 70 -113 141 -113 172 0 20 13 44 40 76 41 47 49 72 29 92 -20 20 -23 154
-5 183 9 14 21 36 27 50 7 14 36 45 65 70 52 43 54 46 54 95 1 97 51 235 106
290 16 16 43 10 60 -14 10 -12 14 -9 29 20 29 56 73 106 104 119 61 25 122
-31 167 -154 9 -23 20 -50 27 -61 6 -11 15 -45 21 -75 11 -52 14 -56 61 -81
155 -79 329 -232 403 -354 61 -101 109 -191 125 -235 44 -125 78 -251 88 -331
11 -84 13 -90 38 -96 14 -3 31 -9 36 -13 6 -4 26 -10 46 -14 41 -7 185 -65
220 -88 13 -8 43 -25 67 -37 24 -12 76 -55 116 -95 l74 -73 11 36 c6 20 20 68
30 106 26 96 107 328 128 368 14 26 18 57 18 157 l0 125 -35 60 c-53 89 -96
110 -223 110 -54 0 -101 -4 -105 -10 -4 -5 -20 -17 -37 -25 -16 -9 -36 -27
-43 -40 -21 -40 -9 -131 28 -207 28 -57 32 -74 27 -119 -10 -100 -77 -162
-160 -149 -146 25 -210 163 -178 386 12 80 38 146 111 278 29 53 118 128 195
167 80 39 180 53 303 43 155 -14 291 -122 347 -274 10 -27 22 -55 27 -61 17
-23 38 -169 38 -269 0 -97 -23 -258 -39 -280 -4 -5 -16 -41 -26 -80 -21 -85
-52 -179 -71 -220 -7 -16 -28 -70 -46 -120 -32 -87 -33 -95 -33 -245 0 -125 3
-162 17 -190 9 -19 22 -62 29 -95 52 -261 43 -463 -27 -612 -13 -28 -24 -54
-24 -58 0 -3 -18 -30 -39 -59 -49 -66 -132 -141 -190 -171 l-46 -24 96 -1 95
0 55 41 c30 22 77 56 104 74 28 18 64 46 80 61 17 16 47 42 68 57 20 16 56 53
78 82 l41 54 54 -30 c30 -16 76 -43 102 -59 26 -16 69 -41 95 -55 26 -14 71
-41 100 -59 57 -36 163 -89 274 -136 l71 -30 429 0 429 0 47 30 c26 16 50 30
52 30 8 0 160 124 164 134 2 5 29 37 60 70 67 72 104 154 126 280 8 47 17 96
21 111 3 14 1 53 -5 88 -6 34 -18 105 -26 157 -9 52 -20 109 -25 125 -25 89
-48 149 -57 152 -5 2 -19 -5 -30 -14 -12 -10 -32 -27 -45 -38 -47 -40 -231
-165 -252 -171 -11 -4 -23 -10 -26 -14 -8 -12 -171 -88 -205 -96 -16 -4 -36
-11 -43 -17 -20 -16 -196 -57 -312 -74 -108 -15 -344 -11 -440 7 -145 27 -293
67 -318 85 -3 3 24 80 37 105 14 27 31 113 46 225 23 188 3 531 -40 660 -8 22
-21 69 -30 104 -9 36 -25 82 -36 103 -10 20 -19 47 -19 59 0 20 -57 148 -71
159 -4 3 -19 30 -34 60 -27 53 -77 132 -151 235 -81 114 -290 326 -390 395
-25 18 -141 103 -169 125 -84 65 -509 286 -595 309 -14 4 -41 15 -61 24 l-37
17 -7 90 c-12 166 -61 422 -94 500 -5 11 -14 45 -20 75 -6 30 -17 66 -24 80
-7 14 -21 48 -31 75 -10 28 -22 55 -26 60 -5 6 -26 56 -48 112 -23 56 -49 115
-60 130 -51 75 -72 110 -72 120 0 7 -6 18 -12 25 -53 56 -75 106 -92 208 -10
58 -22 119 -26 135 -5 17 -14 72 -20 124 -12 94 -54 229 -87 279 -10 15 -29
48 -41 74 -40 79 -169 226 -235 269 -65 42 -76 46 -81 27z"/>
<path d="M2067 719 c-7 -51 -51 -185 -127 -389 -8 -19 -35 -76 -62 -126 -26
-51 -48 -99 -48 -107 0 -8 -11 -31 -25 -51 -14 -20 -25 -39 -25 -41 0 -3 38
-5 84 -5 l83 0 7 61 c9 77 41 129 104 170 l47 30 123 -4 c125 -5 137 -1 108
32 -33 38 -75 132 -86 190 -7 38 -9 98 -5 150 9 115 2 124 -98 129 l-74 4 -6
-43z"/>
</g>
</svg>
